<svg xmlns="http://www.w3.org/2000/svg" xmlns:xlink="http://www.w3.org/1999/xlink" width="150" zoomAndPan="magnify" viewBox="0 0 112.5 112.499997" height="150" preserveAspectRatio="xMidYMid meet" version="1.0"><defs><filter x="0%" y="0%" width="100%" height="100%" id="e6c5f6d6bc"><feColorMatrix values="0 0 0 0 1 0 0 0 0 1 0 0 0 0 1 0 0 0 1 0" color-interpolation-filters="sRGB"/></filter><clipPath id="12d222cea4"><path d="M 19 22 L 89 22 L 89 91 L 19 91 Z M 19 22 " clip-rule="nonzero"/></clipPath><clipPath id="d981884e37"><path d="M 27.671875 16.421875 L 95.382812 30.523438 L 81.765625 95.898438 L 14.054688 81.796875 Z M 27.671875 16.421875 " clip-rule="nonzero"/></clipPath><clipPath id="397911b766"><path d="M 27.671875 16.421875 L 95.382812 30.523438 L 81.765625 95.898438 L 14.054688 81.796875 Z M 27.671875 16.421875 " clip-rule="nonzero"/></clipPath><mask id="be90e89fcc"><g filter="url(#e6c5f6d6bc)"><rect x="-11.25" width="135" fill="#000000" y="-11.25" height="134.999996" fill-opacity="0.9"/></g></mask><clipPath id="11ca4a0ae8"><path d="M 6 7 L 75 7 L 75 76 L 6 76 Z M 6 7 " clip-rule="nonzero"/></clipPath><clipPath id="a1a251aa3a"><path d="M 13.851562 0.820312 L 81.5625 14.921875 L 67.945312 80.296875 L 0.234375 66.195312 Z M 13.851562 0.820312 " clip-rule="nonzero"/></clipPath><clipPath id="9bb6105280"><path d="M 13.851562 0.820312 L 81.5625 14.921875 L 67.945312 80.296875 L 0.234375 66.195312 Z M 13.851562 0.820312 " clip-rule="nonzero"/></clipPath><clipPath id="0cf5339901"><rect x="0" width="82" y="0" height="81"/></clipPath></defs><g clip-path="url(#12d222cea4)"><g clip-path="url(#d981884e37)"><g clip-path="url(#397911b766)"><path fill="#5e17eb" d="M 61.050781 23.460938 C 52.421875 21.710938 43.625 23.246094 36.078125 27.960938 C 28.09375 32.945312 22.59375 40.800781 20.664062 50.066406 C 19.132812 57.417969 19.988281 64.90625 23.226562 71.683594 C 23.648438 72.558594 24.710938 72.960938 25.585938 72.535156 C 26.457031 72.113281 26.859375 71.050781 26.4375 70.179688 C 23.542969 64.078125 22.761719 57.390625 24.136719 50.789062 C 25.859375 42.507812 30.773438 35.4375 37.988281 30.957031 C 45.199219 26.476562 53.6875 25.164062 61.9375 27.304688 C 77.242188 31.21875 87.160156 46.515625 84.578125 62.105469 C 82.457031 74.898438 72.496094 85.027344 59.746094 87.386719 C 58.367188 87.640625 57.070312 87.191406 56.128906 86.207031 C 55.128906 85.214844 54.757812 83.808594 55.035156 82.476562 L 59.59375 60.589844 C 60.253906 57.402344 58.195312 54.257812 55.011719 53.59375 C 51.828125 52.929688 48.679688 54.992188 48.019531 58.179688 L 43.433594 80.183594 C 43.230469 81.167969 43.824219 82.074219 44.808594 82.28125 C 45.792969 82.484375 46.703125 81.890625 46.90625 80.90625 L 51.488281 58.902344 C 51.753906 57.628906 53.015625 56.800781 54.289062 57.066406 C 55.5625 57.332031 56.386719 58.59375 56.121094 59.867188 L 51.574219 81.695312 C 51.054688 84.183594 51.835938 86.824219 53.628906 88.648438 C 54.71875 89.78125 56.082031 90.488281 57.527344 90.789062 C 58.457031 90.980469 59.476562 91.015625 60.414062 90.847656 C 74.605469 88.246094 85.722656 76.90625 88.085938 62.65625 C 90.925781 45.246094 79.863281 28.199219 62.773438 23.855469 C 62.199219 23.707031 61.628906 23.578125 61.050781 23.460938 Z M 58.449219 36.789062 C 55.269531 36.125 52.121094 38.1875 51.457031 41.375 C 50.792969 44.558594 52.855469 47.707031 56.039062 48.371094 C 59.222656 49.03125 62.367188 46.96875 63.03125 43.785156 C 63.695312 40.601562 61.632812 37.453125 58.449219 36.789062 Z M 57.726562 40.261719 C 59 40.527344 59.824219 41.789062 59.558594 43.0625 C 59.292969 44.335938 58.035156 45.160156 56.761719 44.894531 C 55.488281 44.628906 54.664062 43.371094 54.929688 42.097656 C 55.195312 40.824219 56.453125 40 57.726562 40.261719 Z M 31.234375 77.9375 C 30.683594 77.816406 30.085938 77.960938 29.617188 78.390625 C 28.929688 79.09375 28.886719 80.171875 29.574219 80.921875 C 31.117188 82.507812 32.808594 83.949219 34.652344 85.242188 C 34.859375 85.40625 35.09375 85.453125 35.324219 85.5 C 36.019531 85.644531 36.738281 85.371094 37.160156 84.796875 C 37.6875 84 37.5 82.871094 36.703125 82.34375 C 35.066406 81.21875 33.539062 79.871094 32.144531 78.433594 C 31.882812 78.175781 31.566406 78.007812 31.234375 77.9375 Z M 31.234375 77.9375 " fill-opacity="1" fill-rule="nonzero"/></g></g></g><g mask="url(#be90e89fcc)"><g transform="matrix(1, 0, 0, 1, 17, 16)"><g clip-path="url(#0cf5339901)"><g clip-path="url(#11ca4a0ae8)"><g clip-path="url(#a1a251aa3a)"><g clip-path="url(#9bb6105280)"><path fill="#ff66c4" d="M 47.230469 7.859375 C 38.601562 6.109375 29.804688 7.644531 22.257812 12.359375 C 14.273438 17.339844 8.773438 25.199219 6.84375 34.460938 C 5.3125 41.816406 6.167969 49.304688 9.40625 56.082031 C 9.828125 56.953125 10.890625 57.355469 11.765625 56.933594 C 12.636719 56.511719 13.039062 55.449219 12.617188 54.574219 C 9.722656 48.472656 8.941406 41.785156 10.316406 35.183594 C 12.039062 26.90625 16.957031 19.832031 24.167969 15.355469 C 31.378906 10.875 39.867188 9.5625 48.117188 11.703125 C 63.421875 15.613281 73.339844 30.910156 70.757812 46.503906 C 68.636719 59.292969 58.675781 69.425781 45.925781 71.785156 C 44.546875 72.039062 43.25 71.585938 42.308594 70.605469 C 41.308594 69.613281 40.9375 68.207031 41.214844 66.875 L 45.773438 44.988281 C 46.4375 41.800781 44.375 38.652344 41.191406 37.992188 C 38.007812 37.328125 34.859375 39.390625 34.199219 42.574219 L 29.613281 64.578125 C 29.410156 65.5625 30.003906 66.472656 30.988281 66.679688 C 31.972656 66.882812 32.882812 66.285156 33.085938 65.300781 L 37.671875 43.300781 C 37.933594 42.023438 39.195312 41.199219 40.46875 41.464844 C 41.742188 41.730469 42.566406 42.988281 42.300781 44.261719 L 37.753906 66.09375 C 37.234375 68.582031 38.015625 71.222656 39.808594 73.046875 C 40.898438 74.179688 42.261719 74.886719 43.710938 75.1875 C 44.636719 75.378906 45.65625 75.410156 46.597656 75.246094 C 60.785156 72.640625 71.902344 61.304688 74.265625 47.054688 C 77.105469 29.640625 66.042969 12.597656 48.953125 8.25 C 48.382812 8.105469 47.808594 7.976562 47.230469 7.859375 Z M 44.628906 21.1875 C 41.449219 20.523438 38.300781 22.585938 37.636719 25.773438 C 36.972656 28.957031 39.035156 32.105469 42.21875 32.765625 C 45.402344 33.429688 48.546875 31.367188 49.210938 28.183594 C 49.875 24.996094 47.8125 21.847656 44.628906 21.1875 Z M 43.90625 24.660156 C 45.179688 24.925781 46.003906 26.183594 45.738281 27.460938 C 45.472656 28.734375 44.214844 29.558594 42.941406 29.292969 C 41.667969 29.027344 40.84375 27.769531 41.109375 26.496094 C 41.375 25.222656 42.632812 24.394531 43.90625 24.660156 Z M 17.414062 62.332031 C 16.863281 62.210938 16.265625 62.359375 15.796875 62.789062 C 15.109375 63.492188 15.066406 64.570312 15.753906 65.316406 C 17.296875 66.90625 18.988281 68.347656 20.832031 69.636719 C 21.039062 69.800781 21.273438 69.851562 21.503906 69.898438 C 22.199219 70.042969 22.917969 69.769531 23.339844 69.195312 C 23.871094 68.398438 23.679688 67.269531 22.882812 66.742188 C 21.246094 65.617188 19.71875 64.269531 18.324219 62.832031 C 18.0625 62.574219 17.746094 62.40625 17.414062 62.332031 Z M 17.414062 62.332031 " fill-opacity="1" fill-rule="nonzero"/></g></g></g></g></g></g></svg>