<svg xmlns="http://www.w3.org/2000/svg" xmlns:xlink="http://www.w3.org/1999/xlink" width="150" zoomAndPan="magnify" viewBox="0 0 112.5 112.499997" height="150" preserveAspectRatio="xMidYMid meet" version="1.0"><defs><filter x="0%" y="0%" width="100%" height="100%" id="b4ef8402c6"><feColorMatrix values="0 0 0 0 1 0 0 0 0 1 0 0 0 0 1 0 0 0 1 0" color-interpolation-filters="sRGB"/></filter><mask id="6da7db60fa"><g filter="url(#b4ef8402c6)"><rect x="-11.25" width="135" fill="#000000" y="-11.25" height="134.999996" fill-opacity="0.79"/></g></mask><clipPath id="cd7778da78"><path d="M 9 17 L 95 17 L 95 79 L 9 79 Z M 9 17 " clip-rule="nonzero"/></clipPath><clipPath id="d0714f8f54"><path d="M 2.574219 27.257812 L 69.453125 1.691406 L 95.019531 68.570312 L 28.140625 94.136719 Z M 2.574219 27.257812 " clip-rule="nonzero"/></clipPath><clipPath id="71305e57c6"><path d="M 2.574219 27.257812 L 69.453125 1.691406 L 95.019531 68.570312 L 28.140625 94.136719 Z M 2.574219 27.257812 " clip-rule="nonzero"/></clipPath><clipPath id="857978eaa2"><path d="M 27 29 L 33 29 L 33 35 L 27 35 Z M 27 29 " clip-rule="nonzero"/></clipPath><clipPath id="d1b71e50d0"><path d="M 2.574219 27.257812 L 69.453125 1.691406 L 95.019531 68.570312 L 28.140625 94.136719 Z M 2.574219 27.257812 " clip-rule="nonzero"/></clipPath><clipPath id="c3b5beead1"><path d="M 2.574219 27.257812 L 69.453125 1.691406 L 95.019531 68.570312 L 28.140625 94.136719 Z M 2.574219 27.257812 " clip-rule="nonzero"/></clipPath><clipPath id="c979dc1ebb"><path d="M 28 36 L 42 36 L 42 53 L 28 53 Z M 28 36 " clip-rule="nonzero"/></clipPath><clipPath id="1c4a62cc4c"><path d="M 2.574219 27.257812 L 69.453125 1.691406 L 95.019531 68.570312 L 28.140625 94.136719 Z M 2.574219 27.257812 " clip-rule="nonzero"/></clipPath><clipPath id="3808678b39"><path d="M 2.574219 27.257812 L 69.453125 1.691406 L 95.019531 68.570312 L 28.140625 94.136719 Z M 2.574219 27.257812 " clip-rule="nonzero"/></clipPath><clipPath id="097e904823"><path d="M 61 42 L 71 42 L 71 49 L 61 49 Z M 61 42 " clip-rule="nonzero"/></clipPath><clipPath id="21a28bb75c"><path d="M 2.574219 27.257812 L 69.453125 1.691406 L 95.019531 68.570312 L 28.140625 94.136719 Z M 2.574219 27.257812 " clip-rule="nonzero"/></clipPath><clipPath id="0c469b529e"><path d="M 2.574219 27.257812 L 69.453125 1.691406 L 95.019531 68.570312 L 28.140625 94.136719 Z M 2.574219 27.257812 " clip-rule="nonzero"/></clipPath><clipPath id="d893d57dbe"><path d="M 54 49 L 74 49 L 74 60 L 54 60 Z M 54 49 " clip-rule="nonzero"/></clipPath><clipPath id="316c0a3402"><path d="M 2.574219 27.257812 L 69.453125 1.691406 L 95.019531 68.570312 L 28.140625 94.136719 Z M 2.574219 27.257812 " clip-rule="nonzero"/></clipPath><clipPath id="54661e129d"><path d="M 2.574219 27.257812 L 69.453125 1.691406 L 95.019531 68.570312 L 28.140625 94.136719 Z M 2.574219 27.257812 " clip-rule="nonzero"/></clipPath><clipPath id="12152d88ee"><path d="M 57 57 L 77 57 L 77 67 L 57 67 Z M 57 57 " clip-rule="nonzero"/></clipPath><clipPath id="cb0f8f9195"><path d="M 2.574219 27.257812 L 69.453125 1.691406 L 95.019531 68.570312 L 28.140625 94.136719 Z M 2.574219 27.257812 " clip-rule="nonzero"/></clipPath><clipPath id="79ee0dc9a0"><path d="M 2.574219 27.257812 L 69.453125 1.691406 L 95.019531 68.570312 L 28.140625 94.136719 Z M 2.574219 27.257812 " clip-rule="nonzero"/></clipPath><clipPath id="af85a3c5ff"><rect x="0" width="99" y="0" height="100"/></clipPath><clipPath id="ff38b0c775"><path d="M 15 24 L 101 24 L 101 87 L 15 87 Z M 15 24 " clip-rule="nonzero"/></clipPath><clipPath id="7227e037f8"><path d="M 8.691406 35.023438 L 75.570312 9.457031 L 101.140625 76.335938 L 34.261719 101.902344 Z M 8.691406 35.023438 " clip-rule="nonzero"/></clipPath><clipPath id="e353b5e9fc"><path d="M 8.691406 35.023438 L 75.570312 9.457031 L 101.140625 76.335938 L 34.261719 101.902344 Z M 8.691406 35.023438 " clip-rule="nonzero"/></clipPath><clipPath id="b1fdf87977"><path d="M 33 37 L 39 37 L 39 43 L 33 43 Z M 33 37 " clip-rule="nonzero"/></clipPath><clipPath id="089ea5f9a8"><path d="M 8.691406 35.023438 L 75.570312 9.457031 L 101.140625 76.335938 L 34.261719 101.902344 Z M 8.691406 35.023438 " clip-rule="nonzero"/></clipPath><clipPath id="72db08bd85"><path d="M 8.691406 35.023438 L 75.570312 9.457031 L 101.140625 76.335938 L 34.261719 101.902344 Z M 8.691406 35.023438 " clip-rule="nonzero"/></clipPath><clipPath id="06783260a3"><path d="M 34 44 L 48 44 L 48 61 L 34 61 Z M 34 44 " clip-rule="nonzero"/></clipPath><clipPath id="40976dd3b1"><path d="M 8.691406 35.023438 L 75.570312 9.457031 L 101.140625 76.335938 L 34.261719 101.902344 Z M 8.691406 35.023438 " clip-rule="nonzero"/></clipPath><clipPath id="8b9329ee28"><path d="M 8.691406 35.023438 L 75.570312 9.457031 L 101.140625 76.335938 L 34.261719 101.902344 Z M 8.691406 35.023438 " clip-rule="nonzero"/></clipPath><clipPath id="b1fafe46c4"><path d="M 67 50 L 77 50 L 77 57 L 67 57 Z M 67 50 " clip-rule="nonzero"/></clipPath><clipPath id="349a8114e3"><path d="M 8.691406 35.023438 L 75.570312 9.457031 L 101.140625 76.335938 L 34.261719 101.902344 Z M 8.691406 35.023438 " clip-rule="nonzero"/></clipPath><clipPath id="f083b82f7e"><path d="M 8.691406 35.023438 L 75.570312 9.457031 L 101.140625 76.335938 L 34.261719 101.902344 Z M 8.691406 35.023438 " clip-rule="nonzero"/></clipPath><clipPath id="b49a9856d8"><path d="M 60 57 L 80 57 L 80 68 L 60 68 Z M 60 57 " clip-rule="nonzero"/></clipPath><clipPath id="bb5a0edf9a"><path d="M 8.691406 35.023438 L 75.570312 9.457031 L 101.140625 76.335938 L 34.261719 101.902344 Z M 8.691406 35.023438 " clip-rule="nonzero"/></clipPath><clipPath id="3e29de3f16"><path d="M 8.691406 35.023438 L 75.570312 9.457031 L 101.140625 76.335938 L 34.261719 101.902344 Z M 8.691406 35.023438 " clip-rule="nonzero"/></clipPath><clipPath id="5f01794e39"><path d="M 63 64 L 83 64 L 83 75 L 63 75 Z M 63 64 " clip-rule="nonzero"/></clipPath><clipPath id="78a5ed4ca4"><path d="M 8.691406 35.023438 L 75.570312 9.457031 L 101.140625 76.335938 L 34.261719 101.902344 Z M 8.691406 35.023438 " clip-rule="nonzero"/></clipPath><clipPath id="4d0a41a759"><path d="M 8.691406 35.023438 L 75.570312 9.457031 L 101.140625 76.335938 L 34.261719 101.902344 Z M 8.691406 35.023438 " clip-rule="nonzero"/></clipPath></defs><g mask="url(#6da7db60fa)"><g transform="matrix(1, 0, 0, 1, 9, 9)"><g clip-path="url(#af85a3c5ff)"><g clip-path="url(#cd7778da78)"><g clip-path="url(#d0714f8f54)"><g clip-path="url(#71305e57c6)"><path fill="#ff66c4" d="M 87.957031 56.089844 C 88.179688 52.632812 87.667969 49.289062 86.414062 46.058594 C 86.136719 45.332031 85.824219 44.621094 85.476562 43.921875 C 85.125 43.226562 84.746094 42.546875 84.328125 41.886719 C 83.914062 41.226562 83.46875 40.589844 82.992188 39.972656 C 82.511719 39.355469 82.007812 38.765625 81.46875 38.199219 C 80.933594 37.632812 80.371094 37.09375 79.785156 36.582031 C 79.195312 36.074219 78.582031 35.59375 77.945312 35.140625 C 77.308594 34.691406 76.652344 34.273438 75.976562 33.886719 C 75.300781 33.5 74.605469 33.148438 73.894531 32.828125 C 73.183594 32.511719 72.457031 32.230469 71.71875 31.984375 C 70.976562 31.734375 70.226562 31.527344 69.46875 31.351562 C 68.707031 31.179688 67.941406 31.042969 67.167969 30.945312 C 66.394531 30.847656 65.617188 30.789062 64.839844 30.769531 C 64.058594 30.746094 63.28125 30.761719 62.503906 30.816406 C 61.726562 30.875 60.953125 30.964844 60.183594 31.097656 C 59.417969 31.226562 58.65625 31.398438 57.90625 31.601562 C 57.152344 31.808594 56.414062 32.050781 55.683594 32.328125 C 55.40625 31.601562 55.09375 30.886719 54.746094 30.191406 C 54.394531 29.492188 54.015625 28.8125 53.597656 28.15625 C 53.183594 27.496094 52.738281 26.855469 52.261719 26.242188 C 51.78125 25.625 51.277344 25.035156 50.738281 24.46875 C 50.203125 23.902344 49.640625 23.363281 49.054688 22.851562 C 48.464844 22.339844 47.851562 21.859375 47.214844 21.410156 C 46.578125 20.957031 45.921875 20.539062 45.246094 20.152344 C 44.570312 19.769531 43.875 19.414062 43.164062 19.097656 C 42.453125 18.78125 41.726562 18.496094 40.988281 18.25 C 40.246094 18.003906 39.496094 17.792969 38.738281 17.621094 C 37.976562 17.449219 37.210938 17.3125 36.4375 17.214844 C 35.664062 17.117188 34.886719 17.058594 34.109375 17.035156 C 33.328125 17.015625 32.550781 17.03125 31.773438 17.085938 C 30.996094 17.140625 30.222656 17.234375 29.453125 17.367188 C 28.6875 17.496094 27.925781 17.664062 27.175781 17.871094 C 26.421875 18.074219 25.683594 18.316406 24.953125 18.597656 C 24.226562 18.875 23.511719 19.1875 22.816406 19.535156 C 22.117188 19.886719 21.441406 20.265625 20.78125 20.683594 C 20.121094 21.097656 19.484375 21.542969 18.867188 22.019531 C 18.25 22.5 17.660156 23.003906 17.09375 23.542969 C 16.527344 24.078125 15.988281 24.640625 15.476562 25.226562 C 14.96875 25.816406 14.484375 26.429688 14.035156 27.066406 C 13.585938 27.699219 13.167969 28.359375 12.78125 29.035156 C 12.394531 29.710938 12.042969 30.40625 11.722656 31.117188 C 11.40625 31.828125 11.125 32.554688 10.875 33.292969 C 10.628906 34.035156 10.421875 34.785156 10.246094 35.542969 C 10.074219 36.304688 9.9375 37.070312 9.839844 37.84375 C 9.742188 38.617188 9.683594 39.394531 9.660156 40.171875 C 9.640625 40.953125 9.65625 41.730469 9.710938 42.507812 C 9.765625 43.285156 9.859375 44.058594 9.992188 44.828125 C 10.121094 45.59375 10.289062 46.355469 10.496094 47.105469 C 10.703125 47.859375 10.945312 48.597656 11.222656 49.328125 C 12.445312 52.566406 14.289062 55.402344 16.765625 57.824219 L 18.886719 69.371094 C 18.941406 69.664062 19.054688 69.929688 19.230469 70.171875 C 19.402344 70.410156 19.621094 70.605469 19.878906 70.746094 C 20.140625 70.890625 20.417969 70.972656 20.714844 70.988281 C 21.011719 71.007812 21.296875 70.960938 21.574219 70.851562 L 21.90625 70.722656 L 31.925781 64.597656 C 35.382812 64.824219 38.722656 64.3125 41.953125 63.058594 C 42.230469 63.785156 42.542969 64.5 42.894531 65.195312 C 43.242188 65.894531 43.621094 66.574219 44.039062 67.234375 C 44.453125 67.890625 44.898438 68.53125 45.378906 69.144531 C 45.855469 69.761719 46.363281 70.351562 46.898438 70.917969 C 47.433594 71.484375 47.996094 72.023438 48.585938 72.535156 C 49.171875 73.046875 49.785156 73.527344 50.421875 73.976562 C 51.058594 74.429688 51.714844 74.847656 52.390625 75.234375 C 53.066406 75.617188 53.761719 75.972656 54.472656 76.289062 C 55.1875 76.605469 55.910156 76.890625 56.652344 77.136719 C 57.390625 77.382812 58.140625 77.59375 58.898438 77.765625 C 59.660156 77.9375 60.425781 78.074219 61.199219 78.171875 C 61.972656 78.269531 62.75 78.328125 63.527344 78.351562 C 64.308594 78.371094 65.085938 78.355469 65.863281 78.300781 C 66.640625 78.246094 67.414062 78.152344 68.183594 78.023438 C 68.953125 77.890625 69.710938 77.722656 70.464844 77.515625 C 71.214844 77.3125 71.957031 77.070312 72.683594 76.789062 C 75.925781 75.570312 78.757812 73.722656 81.179688 71.25 L 92.726562 69.128906 L 93.0625 69 C 93.339844 68.898438 93.585938 68.742188 93.792969 68.53125 C 94.003906 68.320312 94.15625 68.074219 94.253906 67.792969 C 94.355469 67.511719 94.386719 67.226562 94.355469 66.929688 C 94.324219 66.632812 94.234375 66.359375 94.078125 66.105469 Z M 31.714844 60.601562 C 31.410156 60.578125 31.113281 60.617188 30.828125 60.730469 L 30.492188 60.855469 L 22.292969 65.839844 L 20.523438 56.386719 C 20.429688 55.960938 20.214844 55.601562 19.882812 55.316406 C 17.652344 53.234375 16.003906 50.765625 14.925781 47.910156 C 14.695312 47.304688 14.492188 46.6875 14.324219 46.058594 C 14.152344 45.433594 14.011719 44.800781 13.902344 44.160156 C 13.792969 43.519531 13.714844 42.875 13.667969 42.226562 C 13.625 41.578125 13.609375 40.929688 13.628906 40.28125 C 13.644531 39.632812 13.695312 38.984375 13.777344 38.339844 C 13.859375 37.695312 13.96875 37.058594 14.113281 36.425781 C 14.257812 35.789062 14.433594 35.167969 14.640625 34.550781 C 14.84375 33.933594 15.082031 33.328125 15.34375 32.734375 C 15.609375 32.144531 15.902344 31.5625 16.226562 31 C 16.546875 30.4375 16.894531 29.890625 17.273438 29.359375 C 17.648438 28.828125 18.046875 28.320312 18.472656 27.828125 C 18.898438 27.335938 19.347656 26.867188 19.820312 26.421875 C 20.292969 25.976562 20.785156 25.554688 21.296875 25.15625 C 21.8125 24.757812 22.34375 24.386719 22.890625 24.039062 C 23.441406 23.695312 24.007812 23.375 24.589844 23.085938 C 25.171875 22.792969 25.765625 22.535156 26.371094 22.300781 C 26.976562 22.070312 27.59375 21.867188 28.21875 21.695312 C 28.847656 21.523438 29.480469 21.386719 30.121094 21.277344 C 30.761719 21.167969 31.40625 21.089844 32.054688 21.042969 C 32.703125 20.996094 33.351562 20.984375 34 21 C 34.648438 21.019531 35.296875 21.070312 35.941406 21.148438 C 36.585938 21.230469 37.222656 21.34375 37.855469 21.488281 C 38.488281 21.632812 39.113281 21.808594 39.730469 22.011719 C 40.347656 22.21875 40.953125 22.453125 41.546875 22.71875 C 42.136719 22.984375 42.714844 23.277344 43.28125 23.601562 C 43.84375 23.921875 44.390625 24.269531 44.921875 24.644531 C 45.453125 25.023438 45.960938 25.421875 46.453125 25.847656 C 46.945312 26.273438 47.414062 26.722656 47.859375 27.195312 C 48.304688 27.667969 48.726562 28.160156 49.125 28.671875 C 49.523438 29.183594 49.894531 29.71875 50.242188 30.265625 C 50.585938 30.816406 50.90625 31.382812 51.195312 31.964844 C 51.484375 32.542969 51.746094 33.136719 51.980469 33.746094 C 52.210938 34.351562 52.414062 34.96875 52.585938 35.59375 C 52.753906 36.222656 52.894531 36.855469 53.003906 37.496094 C 53.113281 38.136719 53.191406 38.78125 53.238281 39.425781 C 53.285156 40.074219 53.296875 40.722656 53.28125 41.375 C 53.261719 42.023438 53.210938 42.667969 53.128906 43.3125 C 53.050781 43.957031 52.9375 44.597656 52.792969 45.230469 C 52.648438 45.863281 52.472656 46.488281 52.265625 47.105469 C 52.0625 47.722656 51.828125 48.324219 51.5625 48.917969 C 51.296875 49.511719 51.003906 50.089844 50.679688 50.65625 C 50.359375 51.21875 50.011719 51.765625 49.636719 52.296875 C 49.257812 52.828125 48.859375 53.335938 48.433594 53.828125 C 48.007812 54.316406 47.558594 54.785156 47.085938 55.234375 C 46.613281 55.679688 46.121094 56.101562 45.609375 56.5 C 45.097656 56.898438 44.5625 57.269531 44.015625 57.617188 C 43.464844 57.960938 42.898438 58.28125 42.316406 58.570312 C 41.738281 58.859375 41.144531 59.121094 40.535156 59.355469 C 37.691406 60.457031 34.75 60.875 31.714844 60.601562 Z M 84.195312 57.527344 L 89.179688 65.726562 L 79.742188 67.488281 C 79.316406 67.570312 78.953125 67.773438 78.660156 68.09375 C 76.582031 70.332031 74.121094 71.996094 71.265625 73.085938 C 70.660156 73.316406 70.042969 73.519531 69.417969 73.691406 C 68.789062 73.863281 68.15625 74.003906 67.515625 74.109375 C 66.875 74.21875 66.230469 74.296875 65.582031 74.34375 C 64.9375 74.390625 64.289062 74.402344 63.636719 74.386719 C 62.988281 74.367188 62.339844 74.316406 61.699219 74.238281 C 61.054688 74.15625 60.414062 74.042969 59.78125 73.898438 C 59.148438 73.753906 58.523438 73.578125 57.90625 73.375 C 57.289062 73.167969 56.683594 72.933594 56.09375 72.667969 C 55.5 72.402344 54.921875 72.109375 54.355469 71.789062 C 53.792969 71.464844 53.246094 71.117188 52.714844 70.742188 C 52.183594 70.367188 51.675781 69.964844 51.183594 69.539062 C 50.695312 69.113281 50.226562 68.664062 49.777344 68.191406 C 49.332031 67.722656 48.910156 67.226562 48.511719 66.714844 C 48.113281 66.203125 47.742188 65.671875 47.394531 65.121094 C 47.050781 64.570312 46.730469 64.003906 46.441406 63.425781 C 46.152344 62.84375 45.890625 62.25 45.65625 61.640625 L 45.53125 61.308594 C 46.585938 60.683594 47.589844 59.984375 48.535156 59.207031 C 49.484375 58.425781 50.367188 57.582031 51.183594 56.664062 C 52 55.75 52.738281 54.777344 53.40625 53.75 C 54.074219 52.71875 54.65625 51.644531 55.15625 50.527344 C 55.65625 49.40625 56.066406 48.253906 56.390625 47.070312 C 56.710938 45.886719 56.941406 44.6875 57.078125 43.46875 C 57.214844 42.25 57.257812 41.027344 57.207031 39.800781 C 57.152344 38.578125 57.007812 37.363281 56.769531 36.160156 L 57.101562 36.035156 C 57.707031 35.800781 58.324219 35.601562 58.949219 35.429688 C 59.578125 35.257812 60.210938 35.117188 60.851562 35.007812 C 61.492188 34.898438 62.136719 34.820312 62.785156 34.773438 C 63.433594 34.730469 64.082031 34.714844 64.730469 34.734375 C 65.378906 34.75 66.027344 34.800781 66.671875 34.882812 C 67.316406 34.964844 67.953125 35.078125 68.585938 35.21875 C 69.21875 35.363281 69.84375 35.539062 70.460938 35.746094 C 71.078125 35.949219 71.683594 36.1875 72.277344 36.453125 C 72.867188 36.714844 73.445312 37.007812 74.011719 37.332031 C 74.574219 37.652344 75.121094 38.003906 75.652344 38.378906 C 76.183594 38.753906 76.691406 39.152344 77.183594 39.578125 C 77.675781 40.003906 78.144531 40.453125 78.589844 40.925781 C 79.035156 41.398438 79.457031 41.890625 79.855469 42.402344 C 80.253906 42.917969 80.625 43.449219 80.972656 44 C 81.316406 44.546875 81.636719 45.113281 81.925781 45.695312 C 82.214844 46.277344 82.476562 46.871094 82.710938 47.476562 C 83.8125 50.320312 84.230469 53.261719 83.960938 56.300781 C 83.902344 56.734375 83.980469 57.144531 84.195312 57.527344 Z M 84.195312 57.527344 " fill-opacity="1" fill-rule="nonzero"/></g></g></g><g clip-path="url(#857978eaa2)"><g clip-path="url(#d1b71e50d0)"><g clip-path="url(#c3b5beead1)"><path fill="#ff66c4" d="M 32.328125 31.109375 C 32.441406 31.40625 32.496094 31.71875 32.488281 32.039062 C 32.476562 32.359375 32.40625 32.667969 32.277344 32.960938 C 32.144531 33.253906 31.964844 33.507812 31.730469 33.730469 C 31.496094 33.949219 31.230469 34.117188 30.933594 34.230469 C 30.632812 34.347656 30.320312 34.398438 30 34.390625 C 29.679688 34.382812 29.375 34.3125 29.082031 34.179688 C 28.789062 34.050781 28.53125 33.867188 28.308594 33.636719 C 28.089844 33.402344 27.921875 33.136719 27.808594 32.835938 C 27.691406 32.535156 27.640625 32.226562 27.648438 31.90625 C 27.65625 31.585938 27.726562 31.277344 27.859375 30.984375 C 27.988281 30.691406 28.171875 30.433594 28.40625 30.214844 C 28.636719 29.996094 28.902344 29.828125 29.203125 29.710938 C 29.503906 29.597656 29.8125 29.542969 30.132812 29.554688 C 30.457031 29.5625 30.761719 29.632812 31.054688 29.761719 C 31.347656 29.894531 31.605469 30.074219 31.824219 30.308594 C 32.046875 30.542969 32.214844 30.808594 32.328125 31.109375 Z M 32.328125 31.109375 " fill-opacity="1" fill-rule="nonzero"/></g></g></g><g clip-path="url(#c979dc1ebb)"><g clip-path="url(#1c4a62cc4c)"><g clip-path="url(#3808678b39)"><path fill="#ff66c4" d="M 39.964844 51.078125 C 40.207031 50.984375 40.425781 50.847656 40.617188 50.667969 C 40.808594 50.484375 40.957031 50.277344 41.066406 50.035156 C 41.171875 49.796875 41.230469 49.542969 41.238281 49.28125 C 41.246094 49.019531 41.203125 48.765625 41.109375 48.519531 C 41.011719 48.273438 40.875 48.054688 40.695312 47.863281 C 40.515625 47.671875 40.304688 47.523438 40.0625 47.414062 C 39.824219 47.308594 39.574219 47.25 39.308594 47.242188 C 39.046875 47.238281 38.792969 47.28125 38.546875 47.375 L 38.140625 47.53125 L 34.519531 38.0625 C 34.425781 37.816406 34.289062 37.597656 34.109375 37.40625 C 33.925781 37.21875 33.714844 37.066406 33.476562 36.960938 C 33.234375 36.851562 32.984375 36.796875 32.722656 36.789062 C 32.457031 36.78125 32.203125 36.824219 31.957031 36.917969 L 29.699219 37.78125 C 29.453125 37.875 29.234375 38.015625 29.042969 38.195312 C 28.851562 38.375 28.703125 38.585938 28.597656 38.824219 C 28.488281 39.066406 28.433594 39.316406 28.425781 39.582031 C 28.417969 39.84375 28.460938 40.097656 28.554688 40.34375 C 28.648438 40.589844 28.785156 40.808594 28.964844 41 C 29.148438 41.191406 29.359375 41.339844 29.597656 41.445312 C 29.839844 41.554688 30.089844 41.609375 30.351562 41.617188 C 30.617188 41.625 30.871094 41.582031 31.117188 41.488281 L 31.523438 41.332031 L 34.433594 48.945312 L 34.027344 49.101562 C 33.78125 49.195312 33.5625 49.332031 33.371094 49.515625 C 33.179688 49.695312 33.03125 49.90625 32.921875 50.144531 C 32.816406 50.386719 32.757812 50.636719 32.753906 50.898438 C 32.746094 51.164062 32.789062 51.417969 32.882812 51.664062 C 32.976562 51.910156 33.113281 52.128906 33.292969 52.316406 C 33.476562 52.507812 33.683594 52.65625 33.925781 52.765625 C 34.164062 52.871094 34.417969 52.929688 34.679688 52.9375 C 34.941406 52.945312 35.195312 52.902344 35.441406 52.808594 Z M 39.964844 51.078125 " fill-opacity="1" fill-rule="nonzero"/></g></g></g><g clip-path="url(#097e904823)"><g clip-path="url(#21a28bb75c)"><g clip-path="url(#0c469b529e)"><path fill="#ff66c4" d="M 68.054688 42.464844 L 62.496094 44.589844 C 62.25 44.683594 62.03125 44.820312 61.839844 45 C 61.648438 45.179688 61.5 45.390625 61.394531 45.632812 C 61.285156 45.871094 61.226562 46.125 61.222656 46.386719 C 61.214844 46.648438 61.257812 46.902344 61.351562 47.148438 C 61.445312 47.394531 61.582031 47.613281 61.761719 47.804688 C 61.945312 47.996094 62.152344 48.144531 62.394531 48.25 C 62.632812 48.359375 62.886719 48.417969 63.148438 48.421875 C 63.410156 48.429688 63.664062 48.386719 63.910156 48.292969 L 69.46875 46.167969 C 69.714844 46.074219 69.933594 45.9375 70.125 45.757812 C 70.316406 45.574219 70.464844 45.363281 70.570312 45.125 C 70.679688 44.886719 70.738281 44.632812 70.742188 44.371094 C 70.75 44.109375 70.707031 43.851562 70.613281 43.609375 C 70.519531 43.363281 70.382812 43.144531 70.203125 42.953125 C 70.019531 42.761719 69.808594 42.613281 69.570312 42.503906 C 69.332031 42.398438 69.078125 42.339844 68.816406 42.332031 C 68.554688 42.324219 68.296875 42.371094 68.054688 42.464844 Z M 68.054688 42.464844 " fill-opacity="1" fill-rule="nonzero"/></g></g></g><g clip-path="url(#d893d57dbe)"><g clip-path="url(#316c0a3402)"><g clip-path="url(#54661e129d)"><path fill="#ff66c4" d="M 70.886719 49.875 L 56.066406 55.539062 C 55.820312 55.632812 55.601562 55.769531 55.410156 55.953125 C 55.21875 56.132812 55.070312 56.34375 54.960938 56.582031 C 54.855469 56.824219 54.796875 57.074219 54.789062 57.339844 C 54.785156 57.601562 54.828125 57.855469 54.921875 58.101562 C 55.015625 58.347656 55.152344 58.566406 55.332031 58.753906 C 55.515625 58.945312 55.722656 59.097656 55.964844 59.203125 C 56.203125 59.3125 56.457031 59.367188 56.71875 59.375 C 56.980469 59.382812 57.234375 59.339844 57.480469 59.246094 L 72.300781 53.578125 C 72.546875 53.484375 72.765625 53.347656 72.957031 53.167969 C 73.148438 52.984375 73.296875 52.777344 73.40625 52.535156 C 73.511719 52.296875 73.570312 52.042969 73.578125 51.78125 C 73.585938 51.519531 73.539062 51.265625 73.445312 51.019531 C 73.351562 50.773438 73.214844 50.554688 73.035156 50.363281 C 72.855469 50.171875 72.644531 50.023438 72.402344 49.914062 C 72.164062 49.808594 71.910156 49.75 71.648438 49.742188 C 71.386719 49.738281 71.132812 49.78125 70.886719 49.875 Z M 70.886719 49.875 " fill-opacity="1" fill-rule="nonzero"/></g></g></g><g clip-path="url(#12152d88ee)"><g clip-path="url(#cb0f8f9195)"><g clip-path="url(#79ee0dc9a0)"><path fill="#ff66c4" d="M 73.71875 57.285156 L 58.898438 62.949219 C 58.652344 63.042969 58.433594 63.179688 58.242188 63.363281 C 58.050781 63.542969 57.902344 63.753906 57.796875 63.992188 C 57.6875 64.234375 57.632812 64.484375 57.625 64.75 C 57.617188 65.011719 57.660156 65.265625 57.753906 65.511719 C 57.847656 65.757812 57.984375 65.976562 58.167969 66.167969 C 58.347656 66.355469 58.558594 66.507812 58.796875 66.613281 C 59.039062 66.722656 59.289062 66.777344 59.550781 66.785156 C 59.816406 66.792969 60.070312 66.75 60.316406 66.65625 L 75.136719 60.988281 C 75.382812 60.894531 75.601562 60.757812 75.789062 60.578125 C 75.980469 60.394531 76.132812 60.1875 76.238281 59.945312 C 76.34375 59.707031 76.402344 59.453125 76.410156 59.191406 C 76.417969 58.929688 76.375 58.675781 76.28125 58.429688 C 76.1875 58.183594 76.046875 57.964844 75.867188 57.773438 C 75.6875 57.582031 75.476562 57.433594 75.238281 57.324219 C 74.996094 57.21875 74.746094 57.160156 74.480469 57.152344 C 74.21875 57.148438 73.964844 57.191406 73.71875 57.285156 Z M 73.71875 57.285156 " fill-opacity="1" fill-rule="nonzero"/></g></g></g></g></g></g><g clip-path="url(#ff38b0c775)"><g clip-path="url(#7227e037f8)"><g clip-path="url(#e353b5e9fc)"><path fill="#5e17eb" d="M 94.074219 63.855469 C 94.300781 60.398438 93.785156 57.054688 92.535156 53.824219 C 92.257812 53.097656 91.941406 52.386719 91.59375 51.6875 C 91.246094 50.988281 90.863281 50.3125 90.449219 49.652344 C 90.035156 48.992188 89.585938 48.355469 89.109375 47.738281 C 88.632812 47.121094 88.125 46.53125 87.589844 45.964844 C 87.054688 45.398438 86.492188 44.859375 85.902344 44.347656 C 85.3125 43.839844 84.703125 43.359375 84.066406 42.90625 C 83.429688 42.457031 82.773438 42.039062 82.097656 41.652344 C 81.417969 41.265625 80.726562 40.914062 80.011719 40.59375 C 79.300781 40.277344 78.574219 39.996094 77.835938 39.75 C 77.097656 39.5 76.347656 39.292969 75.585938 39.117188 C 74.828125 38.945312 74.0625 38.808594 73.289062 38.710938 C 72.515625 38.613281 71.738281 38.554688 70.957031 38.535156 C 70.179688 38.511719 69.402344 38.527344 68.625 38.582031 C 67.847656 38.640625 67.074219 38.730469 66.304688 38.863281 C 65.535156 38.992188 64.777344 39.160156 64.023438 39.367188 C 63.273438 39.574219 62.53125 39.816406 61.804688 40.09375 C 61.527344 39.367188 61.210938 38.652344 60.863281 37.957031 C 60.515625 37.257812 60.132812 36.578125 59.71875 35.921875 C 59.304688 35.261719 58.855469 34.621094 58.378906 34.007812 C 57.902344 33.390625 57.394531 32.800781 56.859375 32.234375 C 56.324219 31.667969 55.761719 31.128906 55.171875 30.617188 C 54.582031 30.105469 53.972656 29.625 53.335938 29.175781 C 52.699219 28.722656 52.042969 28.304688 51.367188 27.917969 C 50.6875 27.535156 49.996094 27.179688 49.28125 26.863281 C 48.570312 26.546875 47.84375 26.261719 47.105469 26.015625 C 46.367188 25.769531 45.617188 25.558594 44.855469 25.386719 C 44.097656 25.214844 43.332031 25.078125 42.558594 24.980469 C 41.785156 24.882812 41.007812 24.824219 40.226562 24.800781 C 39.449219 24.78125 38.671875 24.796875 37.894531 24.851562 C 37.117188 24.90625 36.34375 25 35.574219 25.132812 C 34.804688 25.261719 34.046875 25.429688 33.292969 25.636719 C 32.542969 25.839844 31.800781 26.082031 31.074219 26.363281 C 30.34375 26.640625 29.632812 26.953125 28.933594 27.300781 C 28.238281 27.652344 27.558594 28.03125 26.898438 28.445312 C 26.238281 28.863281 25.601562 29.308594 24.984375 29.785156 C 24.371094 30.265625 23.777344 30.769531 23.214844 31.308594 C 22.648438 31.84375 22.109375 32.40625 21.597656 32.992188 C 21.085938 33.582031 20.605469 34.195312 20.15625 34.832031 C 19.703125 35.464844 19.285156 36.121094 18.898438 36.800781 C 18.511719 37.476562 18.160156 38.171875 17.84375 38.882812 C 17.523438 39.59375 17.242188 40.320312 16.996094 41.058594 C 16.75 41.800781 16.539062 42.550781 16.367188 43.308594 C 16.195312 44.070312 16.058594 44.835938 15.960938 45.609375 C 15.863281 46.382812 15.804688 47.160156 15.78125 47.9375 C 15.761719 48.71875 15.777344 49.496094 15.832031 50.273438 C 15.886719 51.050781 15.980469 51.824219 16.109375 52.59375 C 16.242188 53.359375 16.410156 54.121094 16.617188 54.871094 C 16.820312 55.625 17.0625 56.363281 17.339844 57.09375 C 18.5625 60.332031 20.410156 63.167969 22.882812 65.589844 L 25.003906 77.136719 C 25.058594 77.429688 25.175781 77.695312 25.347656 77.9375 C 25.523438 78.175781 25.738281 78.371094 26 78.511719 C 26.261719 78.65625 26.539062 78.738281 26.835938 78.753906 C 27.132812 78.773438 27.417969 78.726562 27.695312 78.617188 L 28.027344 78.488281 L 38.042969 72.363281 C 41.5 72.589844 44.84375 72.078125 48.074219 70.824219 C 48.351562 71.550781 48.664062 72.265625 49.011719 72.960938 C 49.359375 73.660156 49.742188 74.339844 50.15625 74.996094 C 50.574219 75.65625 51.019531 76.296875 51.496094 76.910156 C 51.972656 77.527344 52.480469 78.117188 53.015625 78.683594 C 53.554688 79.25 54.113281 79.789062 54.703125 80.300781 C 55.292969 80.8125 55.90625 81.292969 56.539062 81.742188 C 57.175781 82.195312 57.832031 82.613281 58.511719 83 C 59.1875 83.382812 59.882812 83.738281 60.59375 84.054688 C 61.304688 84.371094 62.03125 84.65625 62.769531 84.902344 C 63.507812 85.148438 64.257812 85.359375 65.019531 85.53125 C 65.78125 85.703125 66.546875 85.839844 67.320312 85.9375 C 68.09375 86.035156 68.867188 86.09375 69.648438 86.117188 C 70.425781 86.136719 71.207031 86.121094 71.984375 86.066406 C 72.761719 86.011719 73.535156 85.917969 74.300781 85.785156 C 75.070312 85.65625 75.832031 85.488281 76.582031 85.28125 C 77.335938 85.078125 78.074219 84.835938 78.804688 84.554688 C 82.042969 83.335938 84.875 81.488281 87.300781 79.015625 L 98.847656 76.890625 L 99.179688 76.765625 C 99.460938 76.664062 99.703125 76.507812 99.914062 76.296875 C 100.121094 76.085938 100.277344 75.839844 100.375 75.558594 C 100.472656 75.277344 100.507812 74.992188 100.476562 74.695312 C 100.445312 74.398438 100.351562 74.125 100.199219 73.871094 Z M 37.832031 68.367188 C 37.527344 68.34375 37.234375 68.382812 36.945312 68.496094 L 36.613281 68.621094 L 28.410156 73.605469 L 26.644531 64.152344 C 26.550781 63.726562 26.335938 63.367188 26 63.082031 C 23.773438 61 22.121094 58.53125 21.046875 55.675781 C 20.816406 55.070312 20.613281 54.453125 20.441406 53.824219 C 20.269531 53.199219 20.128906 52.566406 20.019531 51.925781 C 19.910156 51.285156 19.835938 50.640625 19.789062 49.992188 C 19.742188 49.34375 19.730469 48.695312 19.746094 48.046875 C 19.765625 47.398438 19.8125 46.75 19.894531 46.105469 C 19.976562 45.460938 20.089844 44.824219 20.234375 44.191406 C 20.378906 43.554688 20.554688 42.929688 20.757812 42.316406 C 20.964844 41.699219 21.199219 41.09375 21.464844 40.5 C 21.730469 39.910156 22.023438 39.328125 22.34375 38.765625 C 22.667969 38.203125 23.015625 37.652344 23.390625 37.125 C 23.765625 36.59375 24.167969 36.085938 24.59375 35.59375 C 25.019531 35.101562 25.46875 34.632812 25.941406 34.1875 C 26.410156 33.742188 26.902344 33.320312 27.417969 32.921875 C 27.929688 32.523438 28.460938 32.152344 29.011719 31.804688 C 29.5625 31.460938 30.128906 31.140625 30.707031 30.851562 C 31.289062 30.558594 31.882812 30.300781 32.488281 30.066406 C 33.097656 29.835938 33.714844 29.632812 34.339844 29.460938 C 34.964844 29.289062 35.601562 29.152344 36.242188 29.042969 C 36.878906 28.933594 37.523438 28.855469 38.171875 28.808594 C 38.820312 28.761719 39.46875 28.75 40.117188 28.765625 C 40.769531 28.785156 41.414062 28.835938 42.058594 28.914062 C 42.703125 28.996094 43.34375 29.109375 43.976562 29.253906 C 44.609375 29.398438 45.234375 29.574219 45.851562 29.777344 C 46.46875 29.984375 47.070312 30.21875 47.664062 30.484375 C 48.257812 30.75 48.835938 31.042969 49.402344 31.367188 C 49.964844 31.6875 50.511719 32.035156 51.042969 32.410156 C 51.570312 32.789062 52.082031 33.1875 52.574219 33.613281 C 53.0625 34.039062 53.53125 34.488281 53.976562 34.960938 C 54.425781 35.433594 54.847656 35.925781 55.246094 36.4375 C 55.644531 36.949219 56.015625 37.480469 56.359375 38.03125 C 56.707031 38.582031 57.023438 39.148438 57.316406 39.730469 C 57.605469 40.308594 57.867188 40.902344 58.097656 41.511719 C 58.332031 42.117188 58.53125 42.734375 58.703125 43.359375 C 58.875 43.988281 59.015625 44.621094 59.125 45.261719 C 59.234375 45.902344 59.3125 46.546875 59.355469 47.191406 C 59.402344 47.839844 59.417969 48.488281 59.398438 49.140625 C 59.382812 49.789062 59.332031 50.433594 59.25 51.078125 C 59.167969 51.722656 59.054688 52.363281 58.910156 52.996094 C 58.765625 53.628906 58.59375 54.253906 58.386719 54.871094 C 58.179688 55.488281 57.945312 56.089844 57.679688 56.683594 C 57.417969 57.277344 57.121094 57.855469 56.800781 58.421875 C 56.480469 58.984375 56.128906 59.53125 55.753906 60.0625 C 55.378906 60.59375 54.976562 61.101562 54.550781 61.59375 C 54.125 62.082031 53.679688 62.550781 53.207031 63 C 52.734375 63.445312 52.242188 63.867188 51.730469 64.265625 C 51.214844 64.664062 50.683594 65.035156 50.132812 65.382812 C 49.585938 65.726562 49.019531 66.046875 48.4375 66.335938 C 47.855469 66.625 47.261719 66.886719 46.65625 67.117188 C 43.8125 68.222656 40.871094 68.640625 37.832031 68.367188 Z M 90.3125 65.292969 L 95.296875 73.492188 L 85.863281 75.253906 C 85.433594 75.335938 85.074219 75.539062 84.777344 75.859375 C 82.703125 78.097656 80.238281 79.761719 77.386719 80.851562 C 76.78125 81.082031 76.164062 81.285156 75.535156 81.457031 C 74.910156 81.628906 74.277344 81.765625 73.636719 81.875 C 72.996094 81.984375 72.351562 82.0625 71.703125 82.109375 C 71.054688 82.15625 70.40625 82.167969 69.757812 82.152344 C 69.109375 82.132812 68.460938 82.082031 67.816406 82.003906 C 67.171875 81.921875 66.535156 81.808594 65.898438 81.664062 C 65.265625 81.519531 64.640625 81.34375 64.027344 81.140625 C 63.410156 80.933594 62.804688 80.699219 62.210938 80.433594 C 61.617188 80.167969 61.039062 79.875 60.476562 79.554688 C 59.910156 79.230469 59.363281 78.882812 58.835938 78.507812 C 58.304688 78.132812 57.792969 77.730469 57.304688 77.304688 C 56.8125 76.878906 56.34375 76.429688 55.898438 75.957031 C 55.453125 75.488281 55.03125 74.992188 54.632812 74.480469 C 54.234375 73.96875 53.859375 73.4375 53.515625 72.886719 C 53.167969 72.335938 52.851562 71.769531 52.5625 71.191406 C 52.269531 70.609375 52.007812 70.015625 51.777344 69.40625 L 51.648438 69.074219 C 52.707031 68.449219 53.707031 67.75 54.65625 66.972656 C 55.601562 66.191406 56.484375 65.347656 57.300781 64.429688 C 58.117188 63.515625 58.859375 62.542969 59.527344 61.515625 C 60.191406 60.484375 60.777344 59.410156 61.277344 58.292969 C 61.777344 57.171875 62.1875 56.019531 62.511719 54.835938 C 62.832031 53.652344 63.0625 52.453125 63.199219 51.234375 C 63.335938 50.015625 63.378906 48.792969 63.324219 47.566406 C 63.273438 46.34375 63.128906 45.128906 62.886719 43.925781 L 63.21875 43.800781 C 63.828125 43.566406 64.445312 43.367188 65.070312 43.195312 C 65.695312 43.023438 66.332031 42.882812 66.972656 42.773438 C 67.613281 42.664062 68.253906 42.585938 68.902344 42.539062 C 69.550781 42.496094 70.199219 42.480469 70.847656 42.5 C 71.5 42.515625 72.144531 42.566406 72.789062 42.648438 C 73.433594 42.730469 74.074219 42.84375 74.707031 42.984375 C 75.339844 43.128906 75.964844 43.304688 76.582031 43.511719 C 77.199219 43.714844 77.800781 43.953125 78.394531 44.21875 C 78.988281 44.480469 79.566406 44.773438 80.132812 45.097656 C 80.695312 45.417969 81.242188 45.769531 81.773438 46.144531 C 82.300781 46.519531 82.8125 46.917969 83.304688 47.34375 C 83.792969 47.769531 84.261719 48.21875 84.707031 48.691406 C 85.15625 49.164062 85.578125 49.65625 85.976562 50.167969 C 86.375 50.683594 86.746094 51.214844 87.089844 51.765625 C 87.4375 52.3125 87.753906 52.878906 88.046875 53.460938 C 88.335938 54.042969 88.597656 54.636719 88.828125 55.242188 C 89.933594 58.085938 90.347656 61.027344 90.078125 64.066406 C 90.023438 64.5 90.101562 64.910156 90.3125 65.292969 Z M 90.3125 65.292969 " fill-opacity="1" fill-rule="nonzero"/></g></g></g><g clip-path="url(#b1fdf87977)"><g clip-path="url(#089ea5f9a8)"><g clip-path="url(#72db08bd85)"><path fill="#5e17eb" d="M 38.449219 38.875 C 38.5625 39.171875 38.613281 39.484375 38.605469 39.804688 C 38.597656 40.125 38.527344 40.433594 38.398438 40.726562 C 38.265625 41.019531 38.082031 41.273438 37.851562 41.496094 C 37.617188 41.714844 37.351562 41.882812 37.050781 41.996094 C 36.75 42.113281 36.441406 42.164062 36.121094 42.15625 C 35.800781 42.148438 35.492188 42.078125 35.199219 41.945312 C 34.90625 41.816406 34.652344 41.632812 34.429688 41.402344 C 34.210938 41.167969 34.042969 40.902344 33.925781 40.601562 C 33.8125 40.300781 33.757812 39.992188 33.769531 39.671875 C 33.777344 39.351562 33.847656 39.042969 33.976562 38.75 C 34.109375 38.457031 34.292969 38.199219 34.523438 37.980469 C 34.757812 37.757812 35.023438 37.59375 35.324219 37.476562 C 35.621094 37.363281 35.933594 37.308594 36.253906 37.320312 C 36.574219 37.328125 36.882812 37.398438 37.175781 37.527344 C 37.46875 37.660156 37.722656 37.839844 37.945312 38.074219 C 38.164062 38.308594 38.332031 38.574219 38.449219 38.875 Z M 38.449219 38.875 " fill-opacity="1" fill-rule="nonzero"/></g></g></g><g clip-path="url(#06783260a3)"><g clip-path="url(#40976dd3b1)"><g clip-path="url(#8b9329ee28)"><path fill="#5e17eb" d="M 46.082031 58.84375 C 46.328125 58.75 46.546875 58.613281 46.738281 58.433594 C 46.929688 58.25 47.078125 58.042969 47.183594 57.800781 C 47.292969 57.5625 47.351562 57.308594 47.355469 57.046875 C 47.363281 56.785156 47.320312 56.53125 47.226562 56.285156 C 47.132812 56.039062 46.996094 55.820312 46.816406 55.628906 C 46.632812 55.4375 46.421875 55.289062 46.183594 55.179688 C 45.945312 55.074219 45.691406 55.015625 45.429688 55.007812 C 45.167969 55.003906 44.910156 55.046875 44.667969 55.140625 L 44.257812 55.296875 L 40.640625 45.828125 C 40.546875 45.582031 40.40625 45.363281 40.226562 45.171875 C 40.046875 44.980469 39.835938 44.832031 39.597656 44.726562 C 39.355469 44.617188 39.105469 44.5625 38.839844 44.554688 C 38.578125 44.546875 38.324219 44.589844 38.078125 44.683594 L 35.816406 45.546875 C 35.574219 45.640625 35.355469 45.78125 35.164062 45.960938 C 34.972656 46.140625 34.824219 46.351562 34.714844 46.589844 C 34.609375 46.832031 34.550781 47.082031 34.542969 47.347656 C 34.535156 47.609375 34.578125 47.863281 34.675781 48.109375 C 34.769531 48.355469 34.90625 48.574219 35.085938 48.765625 C 35.265625 48.957031 35.476562 49.105469 35.71875 49.210938 C 35.957031 49.320312 36.210938 49.375 36.472656 49.382812 C 36.734375 49.390625 36.988281 49.347656 37.234375 49.253906 L 37.640625 49.097656 L 40.554688 56.710938 L 40.144531 56.867188 C 39.898438 56.960938 39.683594 57.097656 39.492188 57.28125 C 39.300781 57.460938 39.152344 57.671875 39.042969 57.910156 C 38.9375 58.152344 38.878906 58.402344 38.871094 58.664062 C 38.863281 58.929688 38.90625 59.183594 39 59.429688 C 39.09375 59.675781 39.234375 59.890625 39.414062 60.082031 C 39.59375 60.273438 39.804688 60.421875 40.046875 60.53125 C 40.285156 60.636719 40.535156 60.695312 40.800781 60.703125 C 41.0625 60.710938 41.316406 60.667969 41.5625 60.574219 Z M 46.082031 58.84375 " fill-opacity="1" fill-rule="nonzero"/></g></g></g><g clip-path="url(#b1fafe46c4)"><g clip-path="url(#349a8114e3)"><g clip-path="url(#f083b82f7e)"><path fill="#5e17eb" d="M 74.171875 50.230469 L 68.613281 52.355469 C 68.367188 52.449219 68.152344 52.585938 67.960938 52.765625 C 67.769531 52.945312 67.621094 53.15625 67.511719 53.398438 C 67.40625 53.636719 67.347656 53.890625 67.339844 54.152344 C 67.332031 54.414062 67.375 54.667969 67.46875 54.914062 C 67.5625 55.160156 67.703125 55.378906 67.882812 55.570312 C 68.0625 55.761719 68.273438 55.910156 68.515625 56.015625 C 68.753906 56.125 69.003906 56.183594 69.269531 56.1875 C 69.53125 56.195312 69.785156 56.152344 70.03125 56.058594 L 75.589844 53.933594 C 75.835938 53.839844 76.054688 53.703125 76.242188 53.523438 C 76.433594 53.339844 76.585938 53.128906 76.691406 52.890625 C 76.800781 52.652344 76.855469 52.398438 76.863281 52.136719 C 76.871094 51.875 76.828125 51.617188 76.734375 51.375 C 76.640625 51.128906 76.503906 50.910156 76.320312 50.71875 C 76.140625 50.527344 75.929688 50.378906 75.691406 50.269531 C 75.449219 50.164062 75.199219 50.105469 74.933594 50.097656 C 74.671875 50.089844 74.417969 50.136719 74.171875 50.230469 Z M 74.171875 50.230469 " fill-opacity="1" fill-rule="nonzero"/></g></g></g><g clip-path="url(#b49a9856d8)"><g clip-path="url(#bb5a0edf9a)"><g clip-path="url(#3e29de3f16)"><path fill="#5e17eb" d="M 77.003906 57.640625 L 62.183594 63.304688 C 61.9375 63.398438 61.722656 63.535156 61.53125 63.71875 C 61.339844 63.898438 61.191406 64.109375 61.082031 64.347656 C 60.976562 64.589844 60.917969 64.839844 60.910156 65.101562 C 60.902344 65.367188 60.945312 65.621094 61.039062 65.867188 C 61.132812 66.113281 61.273438 66.332031 61.453125 66.519531 C 61.632812 66.710938 61.84375 66.863281 62.082031 66.96875 C 62.324219 67.074219 62.574219 67.132812 62.839844 67.140625 C 63.101562 67.148438 63.355469 67.105469 63.601562 67.011719 L 78.421875 61.34375 C 78.667969 61.25 78.886719 61.113281 79.078125 60.933594 C 79.269531 60.75 79.417969 60.542969 79.523438 60.300781 C 79.632812 60.0625 79.6875 59.808594 79.695312 59.546875 C 79.703125 59.285156 79.660156 59.027344 79.566406 58.785156 C 79.472656 58.539062 79.335938 58.320312 79.15625 58.128906 C 78.972656 57.9375 78.761719 57.789062 78.523438 57.679688 C 78.28125 57.574219 78.03125 57.515625 77.769531 57.507812 C 77.503906 57.503906 77.25 57.546875 77.003906 57.640625 Z M 77.003906 57.640625 " fill-opacity="1" fill-rule="nonzero"/></g></g></g><g clip-path="url(#5f01794e39)"><g clip-path="url(#78a5ed4ca4)"><g clip-path="url(#4d0a41a759)"><path fill="#5e17eb" d="M 79.839844 65.050781 L 65.019531 70.714844 C 64.773438 70.808594 64.554688 70.945312 64.363281 71.128906 C 64.171875 71.308594 64.023438 71.519531 63.914062 71.757812 C 63.808594 72 63.75 72.25 63.742188 72.515625 C 63.734375 72.777344 63.78125 73.03125 63.875 73.277344 C 63.96875 73.523438 64.105469 73.742188 64.285156 73.933594 C 64.464844 74.121094 64.675781 74.273438 64.917969 74.378906 C 65.15625 74.488281 65.410156 74.542969 65.671875 74.550781 C 65.933594 74.558594 66.1875 74.515625 66.433594 74.421875 L 81.253906 68.753906 C 81.5 68.660156 81.71875 68.523438 81.910156 68.34375 C 82.101562 68.160156 82.25 67.953125 82.359375 67.710938 C 82.464844 67.472656 82.523438 67.21875 82.53125 66.957031 C 82.535156 66.695312 82.492188 66.441406 82.398438 66.195312 C 82.304688 65.949219 82.167969 65.730469 81.988281 65.539062 C 81.808594 65.347656 81.597656 65.199219 81.355469 65.089844 C 81.117188 64.984375 80.863281 64.925781 80.601562 64.917969 C 80.339844 64.914062 80.085938 64.957031 79.839844 65.050781 Z M 79.839844 65.050781 " fill-opacity="1" fill-rule="nonzero"/></g></g></g></svg>